Egyptienne-8.ufo
<glyph name="zero" format="2">
  <advance width="1184"/>
  <unicode hex="0030"/>
  <guideline y="700"/>
  <guideline y="0"/>
  <outline>
    <contour>
      <point x="595" y="700" type="curve"/>
      <point x="719" y="700"/>
      <point x="1134" y="701"/>
      <point x="1134" y="349" type="curve" smooth="yes"/>
      <point x="1134" y="-2"/>
      <point x="714" y="0"/>
      <point x="597" y="-2" type="curve" smooth="yes"/>
      <point x="477" y="-4"/>
      <point x="50" y="1"/>
      <point x="50" y="350" type="curve" smooth="yes"/>
      <point x="50" y="692"/>
      <point x="477" y="700"/>
    </contour>
    <contour>
      <point x="595" y="567" type="curve"/>
      <point x="477" y="567"/>
      <point x="390" y="495"/>
      <point x="390" y="350" type="curve" smooth="yes"/>
      <point x="390" y="181"/>
      <point x="477" y="132"/>
      <point x="598" y="132" type="curve" smooth="yes"/>
      <point x="719" y="132"/>
      <point x="791" y="181"/>
      <point x="791" y="349" type="curve" smooth="yes"/>
      <point x="791" y="495"/>
      <point x="719" y="567"/>
    </contour>
  </outline>
</glyph>
<glyph name="one" format="2">
  <advance width="745"/>
  <unicode hex="0031"/>
  <guideline y="700"/>
  <outline>
    <contour>
      <point x="192" y="700" type="line"/>
      <point x="192" y="485" type="line"/>
      <point x="192" y="485" type="line"/>
      <point x="192" y="117" type="line"/>
      <point x="60" y="117" type="line"/>
      <point x="60" y="0" type="line"/>
      <point x="685" y="0" type="line"/>
      <point x="685" y="117" type="line"/>
      <point x="559" y="117" type="line"/>
      <point x="559" y="585" type="line"/>
      <point x="559" y="700" type="line"/>
      <point x="285" y="700" type="line"/>
    </contour>
    <contour>
      <point x="60" y="406" type="line" smooth="yes"/>
      <point x="70" y="428"/>
      <point x="135" y="434"/>
      <point x="192" y="479" type="curve"/>
      <point x="192" y="700" type="line"/>
      <point x="152" y="593"/>
      <point x="104" y="604"/>
      <point x="60" y="557" type="curve"/>
      <point x="60" y="472" type="line"/>
    </contour>
  </outline>
</glyph>
<glyph name="two" format="2">
  <advance width="1141"/>
  <unicode hex="0032"/>
  <guideline y="700"/>
  <guideline y="0"/>
  <outline>
    <contour>
      <point x="60" y="455" type="line"/>
      <point x="60" y="558"/>
      <point x="186" y="700"/>
      <point x="334" y="700" type="curve" smooth="yes"/>
      <point x="598" y="700"/>
      <point x="567" y="700"/>
      <point x="730" y="700" type="curve"/>
      <point x="1049" y="700"/>
      <point x="1306" y="341"/>
      <point x="775" y="221" type="curve"/>
      <point x="499" y="166" type="line"/>
      <point x="847" y="166" type="line"/>
      <point x="847" y="221" type="line"/>
      <point x="1073" y="221" type="line"/>
      <point x="1073" y="0" type="line"/>
      <point x="60" y="0" type="line"/>
      <point x="60" y="166" type="line"/>
      <point x="139" y="166"/>
      <point x="665" y="341"/>
      <point x="666" y="480" type="curve" smooth="yes"/>
      <point x="667" y="590"/>
      <point x="282" y="618"/>
      <point x="282" y="455" type="curve"/>
    </contour>
  </outline>
</glyph>
<glyph name="three" format="2">
  <advance width="1160"/>
  <unicode hex="0033"/>
  <guideline y="700"/>
  <guideline y="0"/>
  <guideline x="1106"/>
  <outline>
    <contour>
      <point x="50" y="228" type="curve"/>
      <point x="293" y="228" type="line"/>
      <point x="293" y="228"/>
      <point x="293" y="136"/>
      <point x="374" y="130" type="curve"/>
      <point x="622" y="130" type="line"/>
      <point x="686" y="130"/>
      <point x="707" y="273"/>
      <point x="566" y="273" type="curve"/>
      <point x="343" y="273" type="line"/>
      <point x="343" y="418" type="line"/>
      <point x="594" y="418" type="line"/>
      <point x="679" y="418"/>
      <point x="711" y="569"/>
      <point x="555" y="569" type="curve"/>
      <point x="381" y="569" type="line"/>
      <point x="331" y="569"/>
      <point x="291" y="532"/>
      <point x="293" y="464" type="curve"/>
      <point x="50" y="464" type="line"/>
      <point x="50" y="464"/>
      <point x="70" y="700"/>
      <point x="299" y="700" type="curve" smooth="yes"/>
      <point x="455" y="700"/>
      <point x="726" y="700"/>
      <point x="929" y="700" type="curve"/>
      <point x="1093" y="696"/>
      <point x="1230" y="410"/>
      <point x="929" y="364" type="curve"/>
      <point x="1090" y="395"/>
      <point x="1239" y="39"/>
      <point x="929" y="0" type="curve"/>
      <point x="277" y="0" type="line"/>
      <point x="277" y="0"/>
      <point x="90" y="-1"/>
    </contour>
  </outline>
</glyph>
<glyph name="four" format="2">
  <advance width="1136"/>
  <unicode hex="0034"/>
  <guideline y="700"/>
  <guideline y="0"/>
  <guideline y="363"/>
  <outline>
    <contour>
      <point x="1003" y="700" type="line"/>
      <point x="521" y="700" type="line"/>
      <point x="60" y="312" type="line"/>
      <point x="60" y="180" type="line"/>
      <point x="602" y="180" type="line"/>
      <point x="602" y="125" type="line"/>
      <point x="449" y="125" type="line"/>
      <point x="449" y="0" type="line"/>
      <point x="1076" y="0" type="line"/>
      <point x="1076" y="125" type="line"/>
      <point x="926" y="125" type="line"/>
      <point x="926" y="180" type="line"/>
      <point x="1076" y="180" type="line"/>
      <point x="1076" y="322" type="line"/>
      <point x="926" y="322" type="line"/>
      <point x="926" y="477" type="line"/>
      <point x="788" y="477" type="line"/>
      <point x="597" y="363" type="line"/>
      <point x="597" y="322" type="line"/>
      <point x="397" y="322" type="line"/>
    </contour>
  </outline>
</glyph>
<glyph name="five" format="2">
  <advance width="1115"/>
  <unicode hex="0035"/>
  <guideline y="700"/>
  <guideline y="0"/>
  <outline>
    <contour>
      <point x="88" y="700" type="line"/>
      <point x="293" y="700" type="line"/>
      <point x="402" y="643"/>
      <point x="610" y="574"/>
      <point x="962" y="700" type="curve"/>
      <point x="1009" y="574" type="line"/>
      <point x="937" y="534"/>
      <point x="619" y="445"/>
      <point x="293" y="525" type="curve"/>
      <point x="293" y="395" type="line"/>
      <point x="473" y="442"/>
      <point x="765" y="476"/>
      <point x="900" y="436" type="curve" smooth="yes"/>
      <point x="1040" y="395"/>
      <point x="1164" y="200"/>
      <point x="946" y="49" type="curve"/>
      <point x="900" y="0"/>
      <point x="534" y="-63"/>
      <point x="179" y="31" type="curve"/>
      <point x="179" y="31"/>
      <point x="76" y="63"/>
      <point x="50" y="241" type="curve"/>
      <point x="293" y="241" type="line"/>
      <point x="293" y="133"/>
      <point x="386" y="117"/>
      <point x="495" y="117" type="curve" smooth="yes"/>
      <point x="745" y="117"/>
      <point x="728" y="338"/>
      <point x="495" y="330" type="curve" smooth="yes"/>
      <point x="321" y="324"/>
      <point x="306" y="291"/>
      <point x="306" y="291" type="curve" smooth="yes"/>
      <point x="236" y="296"/>
      <point x="89" y="332"/>
      <point x="89" y="332" type="curve"/>
    </contour>
  </outline>
</glyph>
<glyph name="six" format="2">
  <advance width="1115"/>
  <unicode hex="0036"/>
  <guideline y="700"/>
  <guideline y="0"/>
  <outline>
    <contour>
      <point x="829" y="475" type="curve"/>
      <point x="1060" y="475" type="line"/>
      <point x="1060" y="475"/>
      <point x="1062" y="700"/>
      <point x="803" y="700" type="curve" smooth="yes"/>
      <point x="573" y="700"/>
      <point x="555" y="700"/>
      <point x="399" y="700" type="curve"/>
      <point x="-66" y="700"/>
      <point x="-66" y="0"/>
      <point x="398" y="0" type="curve"/>
      <point x="801" y="0" type="line"/>
      <point x="1153" y="0"/>
      <point x="1153" y="418"/>
      <point x="801" y="418" type="curve" smooth="yes"/>
      <point x="668" y="418"/>
      <point x="585" y="436"/>
      <point x="448" y="373" type="curve"/>
      <point x="448" y="511" type="line"/>
      <point x="448" y="511"/>
      <point x="447" y="563"/>
      <point x="521" y="563" type="curve" smooth="yes"/>
      <point x="619" y="563"/>
      <point x="674" y="563"/>
      <point x="749" y="563" type="curve"/>
      <point x="749" y="563"/>
      <point x="829" y="563"/>
    </contour>
    <contour>
      <point x="497" y="270" type="curve"/>
      <point x="619" y="270" type="line"/>
      <point x="684" y="270"/>
      <point x="684" y="132"/>
      <point x="619" y="132" type="curve"/>
      <point x="486" y="132"/>
      <point x="537" y="132"/>
      <point x="497" y="132" type="curve"/>
      <point x="427" y="137"/>
      <point x="427" y="270"/>
    </contour>
  </outline>
</glyph>
<glyph name="seven" format="2">
  <advance width="1139"/>
  <unicode hex="0037"/>
  <guideline y="700"/>
  <outline>
    <contour>
      <point x="60" y="700" type="line"/>
      <point x="1079" y="700" type="line"/>
      <point x="1079" y="563" type="line"/>
      <point x="925" y="377"/>
      <point x="763" y="234"/>
      <point x="612" y="0" type="curve"/>
      <point x="203" y="0"/>
      <point x="337" y="0"/>
      <point x="201" y="0" type="curve"/>
      <point x="337" y="162"/>
      <point x="493" y="335"/>
      <point x="827" y="527" type="curve"/>
      <point x="201" y="527" type="line"/>
      <point x="201" y="439" type="line"/>
      <point x="60" y="439" type="line"/>
    </contour>
  </outline>
</glyph>
<glyph name="eight" format="2">
  <advance width="1079"/>
  <unicode hex="0038"/>
  <guideline y="700"/>
  <guideline y="0"/>
  <outline>
    <contour>
      <point x="209" y="700" type="curve"/>
      <point x="825" y="700" type="line"/>
      <point x="1064" y="706"/>
      <point x="1106" y="360"/>
      <point x="873" y="353" type="curve"/>
      <point x="873" y="348"/>
      <point x="874" y="364"/>
      <point x="873" y="353" type="curve"/>
      <point x="1079" y="345"/>
      <point x="1084" y="-8"/>
      <point x="869" y="0" type="curve"/>
      <point x="200" y="0" type="line"/>
      <point x="9" y="0"/>
      <point x="-9" y="353"/>
      <point x="201" y="353" type="curve"/>
      <point x="201" y="353"/>
      <point x="201" y="353"/>
      <point x="201" y="353" type="curve"/>
      <point x="23" y="353"/>
      <point x="-22" y="700"/>
    </contour>
    <contour>
      <point x="485" y="273" type="line"/>
      <point x="412" y="273"/>
      <point x="403" y="141"/>
      <point x="485" y="140" type="curve"/>
      <point x="578" y="140" type="line"/>
      <point x="659" y="138"/>
      <point x="658" y="273"/>
      <point x="578" y="273" type="curve"/>
    </contour>
    <contour>
      <point x="485" y="569" type="line"/>
      <point x="415" y="568"/>
      <point x="404" y="435"/>
      <point x="485" y="435" type="curve"/>
      <point x="578" y="435" type="line"/>
      <point x="658" y="435"/>
      <point x="658" y="568"/>
      <point x="578" y="569" type="curve"/>
    </contour>
  </outline>
</glyph>
<glyph name="nine" format="2">
  <advance width="1107"/>
  <unicode hex="0039"/>
  <guideline y="700"/>
  <guideline y="0"/>
  <guideline x="-1001"/>
  <outline>
    <contour>
      <point x="293" y="700" type="curve"/>
      <point x="766" y="700" type="line"/>
      <point x="1154" y="700"/>
      <point x="1152" y="0"/>
      <point x="766" y="0" type="curve"/>
      <point x="287" y="0" type="line"/>
      <point x="287" y="0"/>
      <point x="78" y="-7"/>
      <point x="50" y="231" type="curve"/>
      <point x="278" y="231" type="line"/>
      <point x="287" y="222"/>
      <point x="267" y="138"/>
      <point x="374" y="143" type="curve" smooth="yes"/>
      <point x="374" y="143"/>
      <point x="592" y="143"/>
      <point x="592" y="143" type="curve"/>
      <point x="613" y="147"/>
      <point x="649" y="143"/>
      <point x="656" y="231" type="curve" smooth="yes"/>
      <point x="663" y="316"/>
      <point x="646" y="340"/>
      <point x="646" y="340" type="curve" smooth="yes"/>
      <point x="646" y="340"/>
      <point x="646" y="340"/>
      <point x="646" y="340" type="curve"/>
      <point x="563" y="283"/>
      <point x="365" y="271"/>
      <point x="221" y="296" type="curve" smooth="yes"/>
      <point x="-1" y="334"/>
      <point x="-23" y="700"/>
    </contour>
    <contour>
      <point x="493" y="577" type="line"/>
      <point x="415" y="577"/>
      <point x="415" y="440"/>
      <point x="493" y="440" type="curve"/>
      <point x="493" y="440"/>
      <point x="458" y="440"/>
      <point x="598" y="440" type="curve" smooth="yes"/>
      <point x="673" y="440"/>
      <point x="673" y="577"/>
      <point x="598" y="577" type="curve"/>
    </contour>
  </outline>
</glyph>
<glyph name="A" format="2">
  <advance width="1504"/>
  <unicode hex="0041"/>
  <guideline y="700"/>
  <guideline y="0"/>
  <outline>
    <contour>
      <point x="575" y="699" type="line"/>
      <point x="929" y="699" type="line"/>
      <point x="1335" y="124" type="line"/>
      <point x="1444" y="124" type="line"/>
      <point x="1443" y="0" type="line"/>
      <point x="735" y="0" type="line"/>
      <point x="735" y="124" type="line"/>
      <point x="875" y="124" type="line"/>
      <point x="815" y="209" type="line"/>
      <point x="417" y="209" type="line"/>
      <point x="357" y="124" type="line"/>
      <point x="497" y="124" type="line"/>
      <point x="497" y="0" type="line"/>
      <point x="60" y="0" type="line"/>
      <point x="60" y="124" type="line"/>
      <point x="169" y="124" type="line"/>
    </contour>
    <contour>
      <point x="619" y="500" type="line"/>
      <point x="519" y="350" type="line"/>
      <point x="719" y="350" type="line"/>
    </contour>
  </outline>
</glyph>
<glyph name="B" format="2">
  <advance width="1442"/>
  <unicode hex="0042"/>
  <guideline x="60"/>
  <guideline x="1360"/>
  <guideline y="0"/>
  <guideline y="700"/>
  <outline>
    <contour>
      <point x="545" y="286" type="curve"/>
      <point x="545" y="233"/>
      <point x="545" y="179"/>
      <point x="545" y="126" type="curve"/>
      <point x="871" y="126" type="line"/>
      <point x="921" y="126"/>
      <point x="943" y="155"/>
      <point x="943" y="205" type="curve"/>
      <point x="943" y="255"/>
      <point x="921" y="286"/>
      <point x="871" y="286" type="curve"/>
      <point x="871" y="286"/>
      <point x="545" y="286"/>
    </contour>
    <contour>
      <point x="547" y="578" type="line"/>
      <point x="547" y="418" type="line"/>
      <point x="863" y="418" type="line"/>
      <point x="913" y="418"/>
      <point x="943" y="449"/>
      <point x="943" y="499" type="curve"/>
      <point x="943" y="549"/>
      <point x="913" y="578"/>
      <point x="863" y="578" type="curve"/>
    </contour>
    <contour>
      <point x="60" y="700" type="line"/>
      <point x="1150" y="700" type="line"/>
      <point x="1300" y="700"/>
      <point x="1360" y="627"/>
      <point x="1360" y="527" type="curve"/>
      <point x="1360" y="427"/>
      <point x="1300" y="385"/>
      <point x="1150" y="385" type="curve"/>
      <point x="1150" y="385"/>
      <point x="1392" y="390"/>
      <point x="1392" y="210" type="curve"/>
      <point x="1392" y="30"/>
      <point x="1300" y="0"/>
      <point x="1150" y="0" type="curve"/>
      <point x="60" y="0" type="line"/>
      <point x="60" y="124" type="line"/>
      <point x="169" y="124" type="line"/>
      <point x="169" y="576" type="line"/>
      <point x="60" y="576" type="line"/>
    </contour>
  </outline>
</glyph>
<glyph name="C" format="2">
  <advance width="1253"/>
  <unicode hex="0043"/>
  <guideline x="93"/>
  <guideline x="1293"/>
  <guideline y="700"/>
  <guideline y="0"/>
  <outline>
    <contour>
      <point x="1019.19" y="698" type="curve"/>
      <point x="1190.8" y="698" type="line"/>
      <point x="1190.8" y="448" type="line"/>
      <point x="1019.19" y="448" type="line"/>
      <point x="1019.19" y="538"/>
      <point x="867.951" y="571"/>
      <point x="728.513" y="571" type="curve"/>
      <point x="589.075" y="571"/>
      <point x="458.218" y="486"/>
      <point x="458.218" y="356" type="curve"/>
      <point x="458.218" y="226"/>
      <point x="589.075" y="132"/>
      <point x="728.513" y="132" type="curve"/>
      <point x="867.951" y="132"/>
      <point x="1021.33" y="158"/>
      <point x="1021.33" y="248" type="curve"/>
      <point x="1192.95" y="248" type="line"/>
      <point x="1192.95" y="-2" type="line"/>
      <point x="1021.33" y="-2" type="line"/>
      <point x="1021.33" y="48" type="line"/>
      <point x="1021.33" y="18"/>
      <point x="867.951" y="-22"/>
      <point x="728.513" y="-22" type="curve" smooth="yes"/>
      <point x="589.075" y="-22"/>
      <point x="50.63" y="-2"/>
      <point x="50.63" y="359" type="curve" smooth="yes"/>
      <point x="50.63" y="698"/>
      <point x="589.075" y="718"/>
      <point x="728.513" y="718" type="curve"/>
      <point x="867.951" y="718"/>
      <point x="1019.19" y="678"/>
      <point x="1019.19" y="648" type="curve"/>
      <point x="1019.19" y="648"/>
      <point x="1019.19" y="698"/>
    </contour>
  </outline>
</glyph>
<glyph name="D" format="2">
  <advance width="1379"/>
  <unicode hex="0044"/>
  <guideline y="700"/>
  <guideline x="1360"/>
  <guideline y="0"/>
  <guideline x="60"/>
  <outline>
    <contour>
      <point x="60" y="700" type="line"/>
      <point x="469" y="700" type="line"/>
      <point x="954" y="700" type="line"/>
      <point x="1254" y="700"/>
      <point x="1329" y="543"/>
      <point x="1329" y="343" type="curve"/>
      <point x="1329" y="143"/>
      <point x="1254" y="0"/>
      <point x="954" y="0" type="curve"/>
      <point x="942" y="0"/>
      <point x="214" y="0"/>
      <point x="60" y="0" type="curve"/>
      <point x="60" y="124" type="line"/>
      <point x="169" y="124" type="line"/>
      <point x="169" y="576" type="line"/>
      <point x="60" y="576" type="line"/>
    </contour>
    <contour>
      <point x="548" y="578" type="line"/>
      <point x="548" y="126" type="line"/>
      <point x="791" y="126" type="line"/>
      <point x="891" y="126"/>
      <point x="935" y="202"/>
      <point x="935" y="347" type="curve"/>
      <point x="935" y="492"/>
      <point x="891" y="578"/>
      <point x="791" y="578" type="curve"/>
    </contour>
  </outline>
</glyph>
<glyph name="E" format="2">
  <advance width="1322"/>
  <unicode hex="0045"/>
  <guideline y="700"/>
  <guideline y="0"/>
  <outline>
    <contour>
      <point x="60" y="700" type="line"/>
      <point x="1262" y="700" type="line"/>
      <point x="1262" y="460" type="line"/>
      <point x="1102" y="460" type="line"/>
      <point x="1102" y="584" type="line"/>
      <point x="547" y="584" type="line"/>
      <point x="547" y="429" type="line"/>
      <point x="877" y="429" type="line"/>
      <point x="877" y="519" type="line"/>
      <point x="1024" y="519" type="line"/>
      <point x="1024" y="181" type="line"/>
      <point x="877" y="181" type="line"/>
      <point x="877" y="271" type="line"/>
      <point x="547" y="271" type="line"/>
      <point x="547" y="116" type="line"/>
      <point x="1102" y="116" type="line"/>
      <point x="1102" y="240" type="line"/>
      <point x="1262" y="240" type="line"/>
      <point x="1262" y="0" type="line"/>
      <point x="60" y="0" type="line"/>
      <point x="60" y="124" type="line"/>
      <point x="169" y="124" type="line"/>
      <point x="169" y="576" type="line"/>
      <point x="60" y="576" type="line"/>
    </contour>
  </outline>
</glyph>
<glyph name="F" format="2">
  <advance width="1312"/>
  <unicode hex="0046"/>
  <guideline x="60"/>
  <guideline x="1360"/>
  <guideline y="0"/>
  <guideline y="700"/>
  <guideline x="893"/>
  <guideline x="547"/>
  <outline>
    <contour>
      <point x="60" y="700" type="line"/>
      <point x="1262" y="700" type="line"/>
      <point x="1262" y="464" type="line"/>
      <point x="1098" y="464" type="line"/>
      <point x="1098" y="582" type="line"/>
      <point x="548" y="582" type="line"/>
      <point x="548" y="422" type="line"/>
      <point x="893" y="422" type="line"/>
      <point x="893" y="502" type="line"/>
      <point x="1017" y="502" type="line"/>
      <point x="1017" y="204" type="line"/>
      <point x="893" y="204" type="line"/>
      <point x="893" y="284" type="line"/>
      <point x="548" y="284" type="line"/>
      <point x="548" y="124" type="line"/>
      <point x="657" y="124" type="line"/>
      <point x="657" y="0" type="line"/>
      <point x="60" y="0" type="line"/>
      <point x="60" y="124" type="line"/>
      <point x="169" y="124" type="line"/>
      <point x="169" y="576" type="line"/>
      <point x="60" y="576" type="line"/>
    </contour>
  </outline>
</glyph>
<glyph name="G" format="2">
  <advance width="1349"/>
  <unicode hex="0047"/>
  <guideline y="700"/>
  <guideline y="0"/>
  <outline>
    <contour>
      <point x="997" y="700" type="curve"/>
      <point x="1157" y="700" type="line"/>
      <point x="1157" y="488" type="line"/>
      <point x="997" y="488" type="line"/>
      <point x="966" y="528"/>
      <point x="908" y="587"/>
      <point x="726" y="587" type="curve" smooth="yes"/>
      <point x="545" y="587"/>
      <point x="446" y="523"/>
      <point x="446" y="376" type="curve" smooth="yes"/>
      <point x="446" y="236"/>
      <point x="520" y="153"/>
      <point x="683" y="153" type="curve" smooth="yes"/>
      <point x="758" y="153"/>
      <point x="814" y="177"/>
      <point x="822" y="240" type="curve"/>
      <point x="702" y="240" type="line"/>
      <point x="702" y="364" type="line"/>
      <point x="1299" y="364" type="line"/>
      <point x="1299" y="240" type="line"/>
      <point x="1179" y="240" type="line"/>
      <point x="1179" y="0" type="line"/>
      <point x="829" y="0" type="line"/>
      <point x="805" y="47" type="line"/>
      <point x="688" y="-12"/>
      <point x="467" y="-20"/>
      <point x="467" y="-20" type="curve" smooth="yes"/>
      <point x="344" y="-20"/>
      <point x="50" y="4"/>
      <point x="50" y="335" type="curve" smooth="yes"/>
      <point x="50" y="666"/>
      <point x="329" y="720"/>
      <point x="573" y="720" type="curve" smooth="yes"/>
      <point x="781" y="720"/>
      <point x="924" y="689"/>
      <point x="997" y="636" type="curve" smooth="yes"/>
      <point x="997" y="636"/>
      <point x="997" y="700"/>
    </contour>
  </outline>
</glyph>
<glyph name="H" format="2">
  <advance width="1508"/>
  <unicode hex="0048"/>
  <guideline y="0"/>
  <guideline y="700"/>
  <guideline x="1449"/>
  <guideline x="60"/>
  <guideline x="169"/>
  <guideline x="548"/>
  <guideline x="657"/>
  <guideline x="851"/>
  <guideline x="960"/>
  <guideline x="1339"/>
  <outline>
    <contour>
      <point x="60" y="576" type="line"/>
      <point x="169" y="576" type="line"/>
      <point x="169" y="124" type="line"/>
      <point x="60" y="124" type="line"/>
      <point x="60" y="0" type="line"/>
      <point x="657" y="0" type="line"/>
      <point x="657" y="0"/>
      <point x="657" y="124"/>
      <point x="657" y="124" type="curve"/>
      <point x="548" y="124" type="line"/>
      <point x="548" y="274" type="line"/>
      <point x="960" y="274" type="line"/>
      <point x="960" y="124" type="line"/>
      <point x="851" y="124" type="line"/>
      <point x="851" y="0" type="line"/>
      <point x="1448" y="0" type="line"/>
      <point x="1448" y="124" type="line"/>
      <point x="1339" y="124" type="line"/>
      <point x="1339" y="576" type="line"/>
      <point x="1448" y="576" type="line"/>
      <point x="1448" y="700" type="line"/>
      <point x="851" y="700" type="line"/>
      <point x="851" y="576" type="line"/>
      <point x="960" y="576" type="line"/>
      <point x="960" y="426" type="line"/>
      <point x="548" y="426" type="line"/>
      <point x="548" y="576" type="line"/>
      <point x="657" y="576" type="line"/>
      <point x="657" y="700" type="line"/>
      <point x="460" y="700"/>
      <point x="257" y="700"/>
      <point x="60" y="700" type="curve"/>
    </contour>
  </outline>
</glyph>
<glyph name="I" format="2">
  <advance width="717"/>
  <unicode hex="0049"/>
  <guideline x="60"/>
  <guideline x="657"/>
  <guideline y="700"/>
  <guideline y="0"/>
  <outline>
    <contour>
      <point x="60" y="700" type="line"/>
      <point x="60" y="576" type="line"/>
      <point x="169" y="576" type="line"/>
      <point x="169" y="124" type="line"/>
      <point x="60" y="124" type="line"/>
      <point x="60" y="0" type="line"/>
      <point x="657" y="0" type="line"/>
      <point x="657" y="124" type="line"/>
      <point x="548" y="124" type="line"/>
      <point x="548" y="576" type="line"/>
      <point x="657" y="576" type="line"/>
      <point x="657" y="700" type="line"/>
    </contour>
  </outline>
</glyph>
<glyph name="J" format="2">
  <advance width="1181"/>
  <unicode hex="004A"/>
  <guideline y="700"/>
  <guideline y="0"/>
  <outline>
    <contour>
      <point x="534" y="700" type="line"/>
      <point x="1131" y="700" type="line"/>
      <point x="1131" y="576" type="line"/>
      <point x="1022" y="576" type="line"/>
      <point x="1022" y="221" type="line"/>
      <point x="1020" y="0"/>
      <point x="664" y="-20"/>
      <point x="544" y="-20" type="curve"/>
      <point x="424" y="-20"/>
      <point x="50" y="0"/>
      <point x="50" y="235" type="curve"/>
      <point x="421" y="235" type="line"/>
      <point x="421" y="120"/>
      <point x="643" y="95"/>
      <point x="643" y="241" type="curve"/>
      <point x="643" y="576" type="line"/>
      <point x="534" y="576" type="line"/>
    </contour>
  </outline>
</glyph>
<glyph name="K" format="2">
  <advance width="1437"/>
  <unicode hex="004B"/>
  <guideline x="60"/>
  <guideline y="700"/>
  <guideline y="0"/>
  <guideline x="1460"/>
  <guideline x="545"/>
  <outline>
    <contour>
      <point x="60" y="700" type="line"/>
      <point x="657" y="700" type="line"/>
      <point x="657" y="576" type="line"/>
      <point x="548" y="576" type="line"/>
      <point x="547" y="411" type="line"/>
      <point x="942" y="576" type="line"/>
      <point x="764" y="576" type="line"/>
      <point x="764" y="700" type="line"/>
      <point x="1362" y="699" type="line"/>
      <point x="1362" y="575" type="line"/>
      <point x="1253" y="575" type="line"/>
      <point x="915" y="434" type="line"/>
      <point x="1268" y="124" type="line"/>
      <point x="1377" y="124" type="line"/>
      <point x="1377" y="0" type="line"/>
      <point x="679" y="0" type="line"/>
      <point x="679" y="124" type="line"/>
      <point x="775" y="124" type="line"/>
      <point x="611" y="281" type="line"/>
      <point x="548" y="257" type="line"/>
      <point x="548" y="124" type="line"/>
      <point x="657" y="124" type="line"/>
      <point x="657" y="0" type="line"/>
      <point x="60" y="0" type="line"/>
      <point x="60" y="124" type="line"/>
      <point x="169" y="124" type="line"/>
      <point x="169" y="576" type="line"/>
      <point x="60" y="576" type="line"/>
    </contour>
  </outline>
</glyph>
<glyph name="L" format="2">
  <advance width="1332"/>
  <unicode hex="004C"/>
  <guideline x="60"/>
  <guideline x="1360"/>
  <guideline y="0"/>
  <guideline y="700"/>
  <outline>
    <contour>
      <point x="60" y="700" type="line"/>
      <point x="657" y="700" type="line"/>
      <point x="657" y="576" type="line"/>
      <point x="621" y="576"/>
      <point x="584" y="576"/>
      <point x="548" y="576" type="curve"/>
      <point x="548" y="124" type="line"/>
      <point x="1104" y="124" type="line"/>
      <point x="1104" y="274" type="line"/>
      <point x="1272" y="274" type="line"/>
      <point x="1272" y="0" type="line"/>
      <point x="60" y="0" type="line"/>
      <point x="60" y="124" type="line"/>
      <point x="169" y="124" type="line"/>
      <point x="169" y="576" type="line"/>
      <point x="60" y="576" type="line"/>
    </contour>
  </outline>
</glyph>
<glyph name="M" format="2">
  <advance width="1704"/>
  <unicode hex="004D"/>
  <guideline x="60"/>
  <guideline y="0"/>
  <guideline y="700"/>
  <outline>
    <contour>
      <point x="60" y="700" type="line"/>
      <point x="657" y="700" type="line"/>
      <point x="848" y="231" type="line"/>
      <point x="1047" y="700" type="line"/>
      <point x="1644" y="700" type="line"/>
      <point x="1644" y="576" type="line"/>
      <point x="1535" y="576" type="line"/>
      <point x="1535" y="124" type="line"/>
      <point x="1644" y="124" type="line"/>
      <point x="1644" y="0" type="line"/>
      <point x="1047" y="0" type="line"/>
      <point x="1047" y="124" type="line"/>
      <point x="1156" y="124" type="line"/>
      <point x="1156" y="543" type="line"/>
      <point x="926" y="0" type="line"/>
      <point x="565" y="0" type="line"/>
      <point x="332" y="544" type="line"/>
      <point x="332" y="124" type="line"/>
      <point x="441" y="124" type="line"/>
      <point x="441" y="0" type="line"/>
      <point x="60" y="0" type="line"/>
      <point x="60" y="124" type="line"/>
      <point x="169" y="124" type="line"/>
      <point x="169" y="576" type="line"/>
      <point x="60" y="576" type="line"/>
    </contour>
  </outline>
</glyph>
<glyph name="N" format="2">
  <advance width="1515"/>
  <unicode hex="004E"/>
  <guideline y="700"/>
  <guideline y="0"/>
  <guideline x="60"/>
  <guideline x="1460"/>
  <outline>
    <contour>
      <point x="60" y="700" type="line"/>
      <point x="610" y="700" type="line"/>
      <point x="1164" y="193" type="line"/>
      <point x="1164" y="576" type="line"/>
      <point x="1055" y="576" type="line"/>
      <point x="1055" y="700" type="line"/>
      <point x="1455" y="700" type="line"/>
      <point x="1455" y="576" type="line"/>
      <point x="1346" y="576" type="line"/>
      <point x="1346" y="0" type="line"/>
      <point x="796" y="0" type="line"/>
      <point x="351" y="448" type="line"/>
      <point x="351" y="124" type="line"/>
      <point x="460" y="124" type="line"/>
      <point x="460" y="0" type="line"/>
      <point x="60" y="0" type="line"/>
      <point x="60" y="124" type="line"/>
      <point x="169" y="124" type="line"/>
      <point x="169" y="576" type="line"/>
      <point x="60" y="576" type="line"/>
    </contour>
  </outline>
</glyph>
<glyph name="O" format="2">
  <advance width="1500"/>
  <unicode hex="004F"/>
  <guideline y="700"/>
  <outline>
    <contour>
      <point x="750" y="710" type="curve" smooth="yes"/>
      <point x="1170" y="710"/>
      <point x="1450" y="620"/>
      <point x="1450" y="350" type="curve" smooth="yes"/>
      <point x="1450" y="80"/>
      <point x="1170" y="-10"/>
      <point x="750" y="-10" type="curve" smooth="yes"/>
      <point x="330" y="-10"/>
      <point x="50" y="80"/>
      <point x="50" y="350" type="curve" smooth="yes"/>
      <point x="50" y="620"/>
      <point x="330" y="710"/>
    </contour>
    <contour>
      <point x="750" y="570" type="curve" smooth="yes"/>
      <point x="580" y="570"/>
      <point x="460" y="520"/>
      <point x="460" y="350" type="curve" smooth="yes"/>
      <point x="460" y="180"/>
      <point x="580" y="130"/>
      <point x="750" y="130" type="curve" smooth="yes"/>
      <point x="920" y="130"/>
      <point x="1040" y="180"/>
      <point x="1040" y="350" type="curve" smooth="yes"/>
      <point x="1040" y="520"/>
      <point x="920" y="570"/>
    </contour>
  </outline>
</glyph>
<glyph name="P" format="2">
  <advance width="1412"/>
  <unicode hex="0050"/>
  <guideline x="62"/>
  <guideline y="700"/>
  <guideline y="0"/>
  <outline>
    <contour>
      <point x="547" y="582" type="line"/>
      <point x="547" y="417" type="line"/>
      <point x="885" y="417" type="line" smooth="yes"/>
      <point x="935" y="417"/>
      <point x="953" y="445"/>
      <point x="953" y="500" type="curve" smooth="yes"/>
      <point x="953" y="555"/>
      <point x="935" y="582"/>
      <point x="885" y="582" type="curve" smooth="yes"/>
    </contour>
    <contour>
      <point x="60" y="124" type="line"/>
      <point x="169" y="124" type="line"/>
      <point x="169" y="576" type="line"/>
      <point x="60" y="576" type="line"/>
      <point x="60" y="700" type="line"/>
      <point x="1150" y="700" type="line"/>
      <point x="1240" y="700"/>
      <point x="1362" y="690"/>
      <point x="1362" y="500" type="curve"/>
      <point x="1362" y="310"/>
      <point x="1240" y="289"/>
      <point x="1150" y="289" type="curve" smooth="yes"/>
      <point x="1150" y="289"/>
      <point x="1008" y="289"/>
      <point x="548" y="289" type="curve"/>
      <point x="548" y="124" type="line"/>
      <point x="657" y="124" type="line"/>
      <point x="657" y="0" type="line"/>
      <point x="60" y="0" type="line"/>
    </contour>
  </outline>
</glyph>
<glyph name="Q" format="2">
  <advance width="1440"/>
  <unicode hex="0051"/>
  <guideline y="700"/>
  <guideline y="0"/>
  <outline>
    <contour>
      <point x="50" y="354" type="curve"/>
      <point x="50" y="654"/>
      <point x="418" y="720"/>
      <point x="718" y="720" type="curve"/>
      <point x="1018" y="720"/>
      <point x="1384" y="652"/>
      <point x="1384" y="352" type="curve" smooth="yes"/>
      <point x="1384" y="52"/>
      <point x="1136" y="54"/>
      <point x="1136" y="54" type="curve"/>
      <point x="1136" y="54"/>
      <point x="1240" y="-8"/>
      <point x="1390" y="3" type="curve"/>
      <point x="1390" y="-87" type="line"/>
      <point x="1390" y="-87"/>
      <point x="1146" y="-207"/>
      <point x="952" y="0" type="curve"/>
      <point x="716" y="-11" type="line"/>
      <point x="416" y="-11"/>
      <point x="50" y="54"/>
    </contour>
    <contour>
      <point x="547" y="285" type="line"/>
      <point x="890" y="365"/>
      <point x="976" y="234"/>
      <point x="976" y="234" type="curve" smooth="yes"/>
      <point x="1053" y="352"/>
      <point x="1022" y="568"/>
      <point x="722" y="568" type="curve" smooth="yes"/>
      <point x="422" y="568"/>
      <point x="439" y="360"/>
      <point x="439" y="358" type="curve"/>
      <point x="439" y="58"/>
      <point x="802" y="135"/>
      <point x="802" y="135" type="curve" smooth="yes"/>
      <point x="730" y="217"/>
      <point x="574" y="195"/>
      <point x="576" y="195" type="curve"/>
    </contour>
  </outline>
</glyph>
<glyph name="R" format="2">
  <advance width="1480"/>
  <unicode hex="0052"/>
  <guideline y="700"/>
  <guideline y="0"/>
  <guideline x="542"/>
  <guideline y="117"/>
  <outline>
    <contour>
      <point x="60" y="700" type="line"/>
      <point x="979" y="700" type="line"/>
      <point x="1162" y="700"/>
      <point x="1327" y="697"/>
      <point x="1327" y="523" type="curve" smooth="yes"/>
      <point x="1327" y="349"/>
      <point x="1201" y="348"/>
      <point x="1154" y="349" type="curve"/>
      <point x="1154" y="349"/>
      <point x="1269" y="333"/>
      <point x="1298" y="273" type="curve"/>
      <point x="1322" y="221"/>
      <point x="1335" y="165"/>
      <point x="1359" y="144" type="curve" smooth="yes"/>
      <point x="1385" y="121"/>
      <point x="1408" y="125"/>
      <point x="1430" y="124" type="curve"/>
      <point x="1430" y="0" type="line"/>
      <point x="1053" y="0" type="line"/>
      <point x="1053" y="0"/>
      <point x="1019" y="10"/>
      <point x="996" y="27" type="curve" smooth="yes"/>
      <point x="980" y="39"/>
      <point x="953" y="57"/>
      <point x="953" y="144" type="curve" smooth="yes"/>
      <point x="953" y="296"/>
      <point x="881" y="278"/>
      <point x="756" y="281" type="curve" smooth="yes"/>
      <point x="756" y="281"/>
      <point x="548" y="281"/>
      <point x="548" y="281" type="curve"/>
      <point x="548" y="124" type="line"/>
      <point x="657" y="124" type="line"/>
      <point x="657" y="0" type="line"/>
      <point x="60" y="0" type="line"/>
      <point x="60" y="124" type="line"/>
      <point x="169" y="124" type="line"/>
      <point x="169" y="576" type="line"/>
      <point x="60" y="576" type="line"/>
    </contour>
    <contour>
      <point x="542" y="576" type="line"/>
      <point x="542" y="419" type="line"/>
      <point x="859" y="419" type="line"/>
      <point x="859" y="419"/>
      <point x="941" y="419"/>
      <point x="941" y="500" type="curve" smooth="yes"/>
      <point x="941" y="581"/>
      <point x="856" y="573"/>
      <point x="856" y="573" type="curve"/>
    </contour>
  </outline>
</glyph>
<glyph name="S" format="2">
  <advance width="1222"/>
  <unicode hex="0053"/>
  <guideline y="700"/>
  <guideline y="0"/>
  <guideline y="700"/>
  <outline>
    <contour>
      <point x="60" y="206" type="curve"/>
      <point x="60" y="-6" type="line"/>
      <point x="220" y="-6" type="line"/>
      <point x="220" y="46" type="line"/>
      <point x="288" y="-9"/>
      <point x="382" y="-20"/>
      <point x="611" y="-20" type="curve" smooth="yes"/>
      <point x="804" y="-20"/>
      <point x="1162" y="0"/>
      <point x="1162" y="224" type="curve" smooth="yes"/>
      <point x="1162" y="448"/>
      <point x="811" y="466"/>
      <point x="772" y="471" type="curve" smooth="yes"/>
      <point x="733" y="476"/>
      <point x="456" y="484"/>
      <point x="462" y="532" type="curve"/>
      <point x="462" y="532"/>
      <point x="437" y="588"/>
      <point x="666" y="578" type="curve" smooth="yes"/>
      <point x="666" y="578"/>
      <point x="885" y="581"/>
      <point x="921" y="488" type="curve" smooth="yes"/>
      <point x="921" y="488"/>
      <point x="1081" y="488"/>
      <point x="1081" y="488" type="curve"/>
      <point x="1081" y="700" type="line"/>
      <point x="921" y="700" type="line"/>
      <point x="921" y="648" type="line"/>
      <point x="877" y="683"/>
      <point x="792" y="720"/>
      <point x="605" y="720" type="curve" smooth="yes"/>
      <point x="418" y="720"/>
      <point x="62" y="706"/>
      <point x="62" y="482" type="curve" smooth="yes"/>
      <point x="62" y="258"/>
      <point x="331" y="248"/>
      <point x="626" y="218" type="curve" smooth="yes"/>
      <point x="746" y="206"/>
      <point x="774" y="140"/>
      <point x="611" y="123" type="curve" smooth="yes"/>
      <point x="427" y="104"/>
      <point x="266" y="137"/>
      <point x="220" y="206" type="curve" smooth="yes"/>
      <point x="220" y="206"/>
      <point x="60" y="206"/>
    </contour>
  </outline>
</glyph>
<glyph name="T" format="2">
  <advance width="1279"/>
  <unicode hex="0054"/>
  <guideline y="700"/>
  <guideline y="0"/>
  <guideline y="413"/>
  <outline>
    <contour>
      <point x="60" y="700" type="line"/>
      <point x="1219" y="700" type="line"/>
      <point x="1219" y="413" type="line"/>
      <point x="1069" y="413" type="line"/>
      <point x="1069" y="576" type="line"/>
      <point x="829" y="576" type="line"/>
      <point x="829" y="124" type="line"/>
      <point x="938" y="124" type="line"/>
      <point x="938" y="0" type="line"/>
      <point x="341" y="0" type="line"/>
      <point x="341" y="124" type="line"/>
      <point x="450" y="124" type="line"/>
      <point x="450" y="576" type="line"/>
      <point x="210" y="576" type="line"/>
      <point x="210" y="413" type="line"/>
      <point x="60" y="413" type="line"/>
    </contour>
  </outline>
</glyph>
<glyph name="U" format="2">
  <advance width="1480"/>
  <unicode hex="0055"/>
  <guideline y="700"/>
  <guideline y="0"/>
  <outline>
    <contour>
      <point x="60" y="700" type="line"/>
      <point x="657" y="700" type="line"/>
      <point x="657" y="576" type="line"/>
      <point x="548" y="576" type="line"/>
      <point x="548" y="241" type="line" smooth="yes"/>
      <point x="548" y="171"/>
      <point x="595" y="132"/>
      <point x="809" y="132" type="curve" smooth="yes"/>
      <point x="1088" y="132"/>
      <point x="1115" y="153"/>
      <point x="1115" y="220" type="curve" smooth="yes"/>
      <point x="1115" y="576" type="line"/>
      <point x="1006" y="576" type="line"/>
      <point x="1006" y="700" type="line"/>
      <point x="1420" y="700" type="line"/>
      <point x="1420" y="576" type="line"/>
      <point x="1311" y="576" type="line"/>
      <point x="1311" y="216" type="line" smooth="yes"/>
      <point x="1311" y="-34"/>
      <point x="1041" y="-20"/>
      <point x="855" y="-20" type="curve" smooth="yes"/>
      <point x="666" y="-20"/>
      <point x="169" y="-61"/>
      <point x="169" y="206" type="curve" smooth="yes"/>
      <point x="169" y="576" type="line"/>
      <point x="60" y="576" type="line"/>
    </contour>
  </outline>
</glyph>
<glyph name="V" format="2">
  <advance width="1505"/>
  <unicode hex="0056"/>
  <guideline y="700"/>
  <guideline y="0"/>
  <outline>
    <contour>
      <point x="60" y="700" type="line"/>
      <point x="657" y="700" type="line"/>
      <point x="658" y="576" type="line"/>
      <point x="549" y="576" type="line"/>
      <point x="844" y="189" type="line"/>
      <point x="1124" y="576" type="line"/>
      <point x="1015" y="576" type="line"/>
      <point x="1015" y="700" type="line"/>
      <point x="1445" y="700" type="line"/>
      <point x="1445" y="576" type="line"/>
      <point x="1336" y="576" type="line"/>
      <point x="936" y="0" type="line"/>
      <point x="572" y="0" type="line"/>
      <point x="169" y="576" type="line"/>
      <point x="60" y="576" type="line"/>
    </contour>
  </outline>
</glyph>
<glyph name="W" format="2">
  <advance width="2031"/>
  <unicode hex="0057"/>
  <guideline y="700"/>
  <guideline y="0"/>
  <guideline y="577"/>
  <outline>
    <contour>
      <point x="60" y="700" type="line"/>
      <point x="657" y="700" type="line"/>
      <point x="657" y="576" type="line"/>
      <point x="548" y="576" type="line"/>
      <point x="765" y="255" type="line"/>
      <point x="885" y="482" type="line"/>
      <point x="819" y="576" type="line"/>
      <point x="710" y="576" type="line"/>
      <point x="710" y="700" type="line"/>
      <point x="1307" y="700" type="line"/>
      <point x="1307" y="576" type="line"/>
      <point x="1198" y="576" type="line"/>
      <point x="1415" y="255" type="line"/>
      <point x="1650" y="576" type="line"/>
      <point x="1541" y="576" type="line"/>
      <point x="1541" y="700" type="line"/>
      <point x="1971" y="700" type="line"/>
      <point x="1971" y="576" type="line"/>
      <point x="1862" y="576" type="line"/>
      <point x="1456" y="0" type="line"/>
      <point x="1151" y="0" type="line"/>
      <point x="979" y="255" type="line"/>
      <point x="848" y="0" type="line"/>
      <point x="543" y="0" type="line"/>
      <point x="169" y="576" type="line"/>
      <point x="60" y="576" type="line"/>
    </contour>
  </outline>
</glyph>
<glyph name="X" format="2">
  <advance width="1466"/>
  <unicode hex="0058"/>
  <guideline y="700"/>
  <guideline y="0"/>
  <guideline y="813"/>
  <outline>
    <contour>
      <point x="61" y="700" type="line"/>
      <point x="771" y="700" type="line"/>
      <point x="771" y="576" type="line"/>
      <point x="662" y="576" type="line"/>
      <point x="801" y="485" type="line"/>
      <point x="965" y="576" type="line"/>
      <point x="856" y="576" type="line"/>
      <point x="856" y="700" type="line"/>
      <point x="1406" y="700" type="line"/>
      <point x="1406" y="576" type="line"/>
      <point x="1297" y="576" type="line"/>
      <point x="932" y="376" type="line"/>
      <point x="1297" y="124" type="line"/>
      <point x="1406" y="124" type="line"/>
      <point x="1406" y="0" type="line"/>
      <point x="696" y="0" type="line"/>
      <point x="696" y="124" type="line"/>
      <point x="805" y="124" type="line"/>
      <point x="654" y="226" type="line"/>
      <point x="501" y="124" type="line"/>
      <point x="610" y="124" type="line"/>
      <point x="610" y="0" type="line"/>
      <point x="60" y="0" type="line"/>
      <point x="60" y="124" type="line"/>
      <point x="169" y="124" type="line"/>
      <point x="516" y="332" type="line"/>
      <point x="170" y="576" type="line"/>
      <point x="61" y="576" type="line"/>
    </contour>
  </outline>
</glyph>
<glyph name="Y" format="2">
  <advance width="1462"/>
  <unicode hex="0059"/>
  <guideline y="700"/>
  <guideline y="0"/>
  <guideline y="862"/>
  <outline>
    <contour>
      <point x="60" y="700" type="line"/>
      <point x="816" y="700" type="line"/>
      <point x="816" y="576" type="line"/>
      <point x="707" y="576" type="line"/>
      <point x="895" y="423" type="line"/>
      <point x="1081" y="576" type="line"/>
      <point x="972" y="576" type="line"/>
      <point x="972" y="700" type="line"/>
      <point x="1402" y="700" type="line"/>
      <point x="1402" y="576" type="line"/>
      <point x="1293" y="576" type="line"/>
      <point x="919" y="251" type="line"/>
      <point x="919" y="124" type="line"/>
      <point x="1028" y="124" type="line"/>
      <point x="1028" y="0" type="line"/>
      <point x="445" y="0" type="line"/>
      <point x="445" y="124" type="line"/>
      <point x="554" y="124" type="line"/>
      <point x="554" y="251" type="line"/>
      <point x="169" y="576" type="line"/>
      <point x="60" y="576" type="line"/>
    </contour>
  </outline>
</glyph>
<glyph name="Z" format="2">
  <advance width="1243"/>
  <unicode hex="005A"/>
  <guideline y="700"/>
  <guideline y="0"/>
  <guideline x="-42"/>
  <outline>
    <contour>
      <point x="60" y="123" type="line"/>
      <point x="594" y="585" type="line"/>
      <point x="265" y="585" type="line"/>
      <point x="265" y="440" type="line"/>
      <point x="105" y="440" type="line"/>
      <point x="105" y="700" type="line"/>
      <point x="1183" y="700" type="line"/>
      <point x="1183" y="576" type="line"/>
      <point x="642" y="115" type="line"/>
      <point x="1023" y="115" type="line"/>
      <point x="1023" y="260" type="line"/>
      <point x="1183" y="260" type="line"/>
      <point x="1183" y="0" type="line"/>
      <point x="60" y="-1" type="line"/>
    </contour>
  </outline>
</glyph>
<glyph name="a" format="2">
  <advance width="923"/>
  <unicode hex="0061"/>
  <guideline y="0"/>
  <guideline y="700"/>
  <guideline y="482"/>
  <guideline y="482"/>
  <guideline y="-218"/>
  <outline>
    <contour>
      <point x="860" y="19" type="line" smooth="yes"/>
      <point x="860" y="-2"/>
      <point x="792" y="-19"/>
      <point x="729" y="-19" type="curve" smooth="yes"/>
      <point x="612" y="-19"/>
      <point x="588" y="0"/>
      <point x="561" y="38" type="curve"/>
      <point x="511" y="-7"/>
      <point x="442" y="-20"/>
      <point x="307" y="-20" type="curve" smooth="yes"/>
      <point x="187" y="-20"/>
      <point x="64" y="17"/>
      <point x="64" y="123" type="curve" smooth="yes"/>
      <point x="64" y="251"/>
      <point x="164" y="261"/>
      <point x="377" y="283" type="curve" smooth="yes"/>
      <point x="555" y="301" type="line"/>
      <point x="555" y="315" type="line" smooth="yes"/>
      <point x="555" y="360"/>
      <point x="521" y="377"/>
      <point x="433" y="377" type="curve" smooth="yes"/>
      <point x="334" y="377"/>
      <point x="311" y="352"/>
      <point x="304" y="306" type="curve"/>
      <point x="63" y="306" type="line"/>
      <point x="91" y="481"/>
      <point x="248" y="481"/>
      <point x="450" y="481" type="curve" smooth="yes"/>
      <point x="702" y="481"/>
      <point x="797" y="448"/>
      <point x="797" y="329" type="curve" smooth="yes"/>
      <point x="797" y="179" type="line" smooth="yes"/>
      <point x="797" y="142"/>
      <point x="801" y="121"/>
      <point x="860" y="132" type="curve"/>
    </contour>
    <contour>
      <point x="407" y="203" type="line" smooth="yes"/>
      <point x="334" y="195"/>
      <point x="320" y="173"/>
      <point x="320" y="152" type="curve" smooth="yes"/>
      <point x="320" y="121"/>
      <point x="339" y="101"/>
      <point x="429" y="101" type="curve" smooth="yes"/>
      <point x="547" y="101"/>
      <point x="558" y="152"/>
      <point x="562" y="220" type="curve"/>
    </contour>
  </outline>
</glyph>
<glyph name="b" format="2">
  <advance width="925"/>
  <unicode hex="0062"/>
  <outline>
    <contour>
      <point x="35" y="696" type="line"/>
      <point x="354" y="697" type="line"/>
      <point x="354" y="432" type="line"/>
      <point x="409" y="463"/>
      <point x="432" y="501"/>
      <point x="591" y="502" type="curve" smooth="yes"/>
      <point x="773" y="503"/>
      <point x="895" y="419"/>
      <point x="895" y="258" type="curve" smooth="yes"/>
      <point x="895" y="80"/>
      <point x="765" y="-20"/>
      <point x="603" y="-20" type="curve" smooth="yes"/>
      <point x="465" y="-20"/>
      <point x="401" y="-1"/>
      <point x="354" y="61" type="curve"/>
      <point x="354" y="0" type="line"/>
      <point x="35" y="0" type="line"/>
      <point x="35" y="87" type="line"/>
      <point x="114" y="88" type="line"/>
      <point x="114" y="609" type="line"/>
      <point x="35" y="609" type="line"/>
    </contour>
    <contour>
      <point x="375" y="258" type="curve" smooth="yes"/>
      <point x="375" y="170"/>
      <point x="405" y="90"/>
      <point x="503" y="90" type="curve" smooth="yes"/>
      <point x="590" y="90"/>
      <point x="631" y="154"/>
      <point x="631" y="258" type="curve" smooth="yes"/>
      <point x="631" y="343"/>
      <point x="600" y="389"/>
      <point x="503" y="389" type="curve" smooth="yes"/>
      <point x="394" y="389"/>
      <point x="375" y="313"/>
    </contour>
  </outline>
</glyph>
<glyph name="c" format="2">
  <advance width="845"/>
  <unicode hex="0063"/>
  <outline>
    <contour>
      <point x="678" y="502" type="line"/>
      <point x="810" y="502" type="line"/>
      <point x="810" y="304" type="line"/>
      <point x="678" y="304" type="line"/>
      <point x="654" y="378"/>
      <point x="606" y="389"/>
      <point x="482" y="389" type="curve" smooth="yes"/>
      <point x="333" y="389"/>
      <point x="311" y="344"/>
      <point x="311" y="256" type="curve" smooth="yes"/>
      <point x="311" y="130"/>
      <point x="343" y="104"/>
      <point x="489" y="104" type="curve" smooth="yes"/>
      <point x="589" y="104"/>
      <point x="646" y="110"/>
      <point x="678" y="196" type="curve"/>
      <point x="810" y="196" type="line"/>
      <point x="810" y="-3"/>
      <point x="574" y="-20"/>
      <point x="420" y="-20" type="curve" smooth="yes"/>
      <point x="251" y="-20"/>
      <point x="30" y="39"/>
      <point x="30" y="256" type="curve" smooth="yes"/>
      <point x="30" y="446"/>
      <point x="214" y="502"/>
      <point x="420" y="502" type="curve" smooth="yes"/>
      <point x="505" y="502"/>
      <point x="612" y="502"/>
      <point x="678" y="466" type="curve"/>
    </contour>
  </outline>
</glyph>
<glyph name="d" format="2">
  <advance width="873"/>
  <unicode hex="0064"/>
  <guideline y="700"/>
  <outline>
    <contour>
      <point x="838" y="2" type="line"/>
      <point x="838" y="87" type="line"/>
      <point x="759" y="87" type="line"/>
      <point x="759" y="701" type="line"/>
      <point x="443" y="701" type="line"/>
      <point x="443" y="616" type="line"/>
      <point x="524" y="616" type="line"/>
      <point x="524" y="460" type="line"/>
      <point x="496" y="476"/>
      <point x="463" y="502"/>
      <point x="305" y="502" type="curve" smooth="yes"/>
      <point x="159" y="502"/>
      <point x="30" y="380"/>
      <point x="30" y="249" type="curve"/>
      <point x="30" y="154"/>
      <point x="62" y="-20"/>
      <point x="305" y="-20" type="curve" smooth="yes"/>
      <point x="415" y="-20"/>
      <point x="456" y="0"/>
      <point x="524" y="49" type="curve"/>
      <point x="524" y="2" type="line"/>
    </contour>
    <contour>
      <point x="528" y="246" type="curve" smooth="yes"/>
      <point x="528" y="179"/>
      <point x="524" y="107"/>
      <point x="405" y="107" type="curve"/>
      <point x="301" y="107"/>
      <point x="282" y="166"/>
      <point x="282" y="246" type="curve" smooth="yes"/>
      <point x="282" y="321"/>
      <point x="304" y="385"/>
      <point x="405" y="385" type="curve" smooth="yes"/>
      <point x="492" y="385"/>
      <point x="528" y="344"/>
    </contour>
  </outline>
</glyph>
<glyph name="e" format="2">
  <advance width="812"/>
  <unicode hex="0065"/>
  <guideline x="279"/>
  <outline>
    <contour>
      <point x="405" y="502" type="curve" smooth="yes"/>
      <point x="591" y="502"/>
      <point x="799" y="450"/>
      <point x="780" y="210" type="curve"/>
      <point x="279" y="213" type="line"/>
      <point x="288" y="207"/>
      <point x="263" y="105"/>
      <point x="466" y="105" type="curve" smooth="yes"/>
      <point x="530" y="105"/>
      <point x="623" y="115"/>
      <point x="649" y="172" type="curve"/>
      <point x="778" y="166" type="line"/>
      <point x="656" y="-6"/>
      <point x="550" y="0"/>
      <point x="358" y="0" type="curve" smooth="yes"/>
      <point x="193" y="0"/>
      <point x="30" y="62"/>
      <point x="30" y="238" type="curve" smooth="yes"/>
      <point x="30" y="450"/>
      <point x="221" y="502"/>
    </contour>
    <contour>
      <point x="542" y="303" type="line"/>
      <point x="534" y="309"/>
      <point x="544" y="385"/>
      <point x="409" y="385" type="curve"/>
      <point x="341" y="383"/>
      <point x="294" y="379"/>
      <point x="279" y="303" type="curve"/>
    </contour>
  </outline>
</glyph>
<glyph name="f" format="2">
  <advance width="696"/>
  <unicode hex="0066"/>
  <outline>
    <contour>
      <point x="460" y="701" type="line"/>
      <point x="491" y="696"/>
      <point x="668" y="707"/>
      <point x="660" y="526" type="curve"/>
      <point x="418" y="526" type="line"/>
      <point x="418" y="565" type="line"/>
      <point x="413" y="599"/>
      <point x="362" y="610"/>
      <point x="350" y="565" type="curve"/>
      <point x="350" y="476" type="line"/>
      <point x="432" y="476" type="line"/>
      <point x="432" y="374" type="line"/>
      <point x="349" y="374" type="line"/>
      <point x="349" y="91" type="line"/>
      <point x="432" y="91" type="line"/>
      <point x="432" y="0" type="line"/>
      <point x="302" y="0"/>
      <point x="38" y="0"/>
      <point x="38" y="0" type="curve"/>
      <point x="38" y="91" type="line"/>
      <point x="110" y="91" type="line"/>
      <point x="110" y="374" type="line"/>
      <point x="35" y="374" type="line"/>
      <point x="35" y="478" type="line"/>
      <point x="110" y="478" type="line"/>
      <point x="110" y="565" type="line"/>
      <point x="110" y="580"/>
      <point x="121" y="696"/>
      <point x="308" y="701" type="curve"/>
    </contour>
  </outline>
</glyph>
<glyph name="g" format="2">
  <advance width="900"/>
  <unicode hex="0067"/>
  <outline>
    <contour>
      <point x="548" y="482" type="line"/>
      <point x="865" y="482" type="line"/>
      <point x="865" y="399" type="line"/>
      <point x="791" y="399" type="line"/>
      <point x="791" y="-42" type="line" smooth="yes"/>
      <point x="791" y="-42"/>
      <point x="797" y="-199"/>
      <point x="592" y="-218" type="curve"/>
      <point x="264" y="-218" type="line" smooth="yes"/>
      <point x="193" y="-218"/>
      <point x="73" y="-221"/>
      <point x="42" y="-72" type="curve"/>
      <point x="299" y="-72" type="line"/>
      <point x="305" y="-153"/>
      <point x="547" y="-160"/>
      <point x="547" y="-72" type="curve" smooth="yes"/>
      <point x="547" y="52" type="line"/>
      <point x="524" y="50"/>
      <point x="509" y="-15"/>
      <point x="261" y="-7" type="curve"/>
      <point x="166" y="-7"/>
      <point x="35" y="56"/>
      <point x="35" y="209" type="curve"/>
      <point x="35" y="422"/>
      <point x="171" y="492"/>
      <point x="299" y="492" type="curve" smooth="yes"/>
      <point x="380" y="492"/>
      <point x="491" y="496"/>
      <point x="547" y="441" type="curve"/>
    </contour>
    <contour>
      <point x="292" y="265" type="curve" smooth="yes"/>
      <point x="292" y="175"/>
      <point x="314" y="105"/>
      <point x="401" y="105" type="curve" smooth="yes"/>
      <point x="502" y="105"/>
      <point x="529" y="155"/>
      <point x="521" y="263" type="curve" smooth="yes"/>
      <point x="516" y="336"/>
      <point x="513" y="389"/>
      <point x="401" y="389" type="curve" smooth="yes"/>
      <point x="312" y="389"/>
      <point x="292" y="340"/>
    </contour>
  </outline>
</glyph>
<glyph name="h" format="2">
  <advance width="962"/>
  <unicode hex="0068"/>
  <guideline y="0"/>
  <guideline x="354"/>
  <outline>
    <contour>
      <point x="859" y="98" type="curve"/>
      <point x="859" y="114" type="line"/>
      <point x="859" y="271" type="line"/>
      <point x="859" y="429"/>
      <point x="755" y="498"/>
      <point x="625" y="502" type="curve" smooth="yes"/>
      <point x="527" y="505"/>
      <point x="420" y="475"/>
      <point x="354" y="445" type="curve"/>
      <point x="354" y="700" type="line"/>
      <point x="35" y="700" type="line"/>
      <point x="35" y="605" type="line"/>
      <point x="122" y="605" type="line"/>
      <point x="122" y="98" type="line"/>
      <point x="108" y="98"/>
      <point x="35" y="98"/>
      <point x="35" y="98" type="curve"/>
      <point x="35" y="0" type="line"/>
      <point x="440" y="0" type="line"/>
      <point x="440" y="98" type="line"/>
      <point x="353" y="98" type="line"/>
      <point x="353" y="321" type="line"/>
      <point x="353" y="321"/>
      <point x="355" y="374"/>
      <point x="495" y="374" type="curve" smooth="yes"/>
      <point x="541" y="374"/>
      <point x="601" y="352"/>
      <point x="603" y="288" type="curve"/>
      <point x="603" y="98" type="line"/>
      <point x="534" y="98" type="line"/>
      <point x="534" y="0" type="line"/>
      <point x="927" y="0" type="line"/>
      <point x="927" y="98" type="line"/>
      <point x="897" y="98"/>
      <point x="859" y="98"/>
    </contour>
  </outline>
</glyph>
<glyph name="i" format="2">
  <advance width="468"/>
  <unicode hex="0069"/>
  <outline>
    <contour>
      <point x="47" y="482" type="line"/>
      <point x="359" y="482" type="line"/>
      <point x="359" y="92" type="line"/>
      <point x="433" y="92" type="line"/>
      <point x="433" y="1" type="line"/>
      <point x="35" y="1" type="line"/>
      <point x="35" y="84" type="line"/>
      <point x="112" y="84" type="line"/>
      <point x="112" y="374" type="line"/>
      <point x="47" y="374" type="line"/>
    </contour>
    <contour>
      <point x="353" y="700" type="line"/>
      <point x="353" y="536" type="line"/>
      <point x="106" y="536" type="line"/>
      <point x="106" y="700" type="line"/>
    </contour>
  </outline>
</glyph>
<glyph name="j" format="2">
  <advance width="613"/>
  <unicode hex="006A"/>
  <outline>
    <contour>
      <point x="266" y="482" type="line"/>
      <point x="578" y="482" type="line"/>
      <point x="578" y="-19" type="line"/>
      <point x="572" y="-73"/>
      <point x="577" y="-218"/>
      <point x="337" y="-218" type="curve"/>
      <point x="265" y="-218"/>
      <point x="35" y="-250"/>
      <point x="35" y="3" type="curve"/>
      <point x="273" y="3" type="line"/>
      <point x="273" y="-78" type="line" smooth="yes"/>
      <point x="273" y="-112"/>
      <point x="340" y="-124"/>
      <point x="340" y="-78" type="curve" smooth="yes"/>
      <point x="340" y="390" type="line"/>
      <point x="266" y="390" type="line"/>
    </contour>
    <contour>
      <point x="340" y="700" type="line"/>
      <point x="578" y="700" type="line"/>
      <point x="578" y="540" type="line"/>
      <point x="340" y="540" type="line"/>
    </contour>
  </outline>
</glyph>
<glyph name="k" format="2">
  <advance width="950"/>
  <unicode hex="006B"/>
  <guideline y="102"/>
  <guideline y="0"/>
  <outline>
    <contour>
      <point x="35" y="699" type="line"/>
      <point x="346" y="699" type="line"/>
      <point x="346" y="264" type="line"/>
      <point x="622" y="390" type="line"/>
      <point x="486" y="390" type="line"/>
      <point x="486" y="483" type="line"/>
      <point x="915" y="483" type="line"/>
      <point x="915" y="390" type="line"/>
      <point x="826" y="390" type="line"/>
      <point x="686" y="320" type="line"/>
      <point x="826" y="102" type="line"/>
      <point x="915" y="102" type="line"/>
      <point x="915" y="0" type="line"/>
      <point x="475" y="0" type="line"/>
      <point x="475" y="102" type="line"/>
      <point x="550" y="102" type="line"/>
      <point x="472" y="220" type="line"/>
      <point x="351" y="173" type="line"/>
      <point x="351" y="102" type="line"/>
      <point x="438" y="102" type="line"/>
      <point x="438" y="0" type="line"/>
      <point x="38" y="0" type="line"/>
      <point x="38" y="102" type="line"/>
      <point x="115" y="102" type="line"/>
      <point x="115" y="601" type="line"/>
      <point x="35" y="601" type="line"/>
    </contour>
  </outline>
</glyph>
<glyph name="l" format="2">
  <advance width="478"/>
  <unicode hex="006C"/>
  <outline>
    <contour>
      <point x="35" y="700" type="line"/>
      <point x="352" y="700" type="line"/>
      <point x="352" y="94" type="line"/>
      <point x="443" y="94" type="line"/>
      <point x="443" y="2" type="line"/>
      <point x="38" y="2" type="line"/>
      <point x="38" y="94" type="line"/>
      <point x="118" y="94" type="line"/>
      <point x="118" y="609" type="line"/>
      <point x="35" y="609" type="line"/>
    </contour>
  </outline>
</glyph>
<glyph name="m" format="2">
  <advance width="1442"/>
  <unicode hex="006D"/>
  <outline>
    <contour>
      <point x="35" y="502" type="line"/>
      <point x="371" y="502" type="line"/>
      <point x="371" y="432" type="line"/>
      <point x="417" y="447"/>
      <point x="437" y="502"/>
      <point x="596" y="502" type="curve" smooth="yes"/>
      <point x="686" y="502"/>
      <point x="782" y="502"/>
      <point x="835" y="413" type="curve"/>
      <point x="869" y="428"/>
      <point x="923" y="502"/>
      <point x="1106" y="502" type="curve" smooth="yes"/>
      <point x="1244" y="502"/>
      <point x="1343" y="465"/>
      <point x="1343" y="302" type="curve"/>
      <point x="1343" y="104" type="line"/>
      <point x="1407" y="104" type="line"/>
      <point x="1407" y="0" type="line"/>
      <point x="1026" y="0" type="line"/>
      <point x="1026" y="104" type="line"/>
      <point x="1093" y="104" type="line"/>
      <point x="1093" y="325" type="line"/>
      <point x="1084" y="346"/>
      <point x="1078" y="409"/>
      <point x="962" y="384" type="curve"/>
      <point x="916" y="370"/>
      <point x="866" y="349"/>
      <point x="852" y="296" type="curve"/>
      <point x="852" y="104" type="line"/>
      <point x="931" y="104" type="line"/>
      <point x="931" y="0" type="line"/>
      <point x="529" y="0" type="line"/>
      <point x="529" y="104" type="line"/>
      <point x="602" y="104" type="line"/>
      <point x="602" y="326" type="line"/>
      <point x="594" y="346"/>
      <point x="590" y="403"/>
      <point x="471" y="377" type="curve"/>
      <point x="393" y="348"/>
      <point x="371" y="335"/>
      <point x="371" y="302" type="curve"/>
      <point x="371" y="104" type="line"/>
      <point x="445" y="104" type="line"/>
      <point x="445" y="0" type="line"/>
      <point x="35" y="0" type="line"/>
      <point x="35" y="104" type="line"/>
      <point x="114" y="104" type="line"/>
      <point x="114" y="384" type="line"/>
      <point x="35" y="384" type="line"/>
    </contour>
  </outline>
</glyph>
<glyph name="n" format="2">
  <advance width="963"/>
  <unicode hex="006E"/>
  <guideline y="482"/>
  <outline>
    <contour>
      <point x="35" y="482" type="line"/>
      <point x="355" y="482" type="line"/>
      <point x="355" y="372" type="line"/>
      <point x="327" y="397" type="line"/>
      <point x="422" y="470"/>
      <point x="514" y="502"/>
      <point x="629" y="502" type="curve" smooth="yes"/>
      <point x="779" y="502"/>
      <point x="853" y="447"/>
      <point x="853" y="335" type="curve" smooth="yes"/>
      <point x="853" y="100" type="line"/>
      <point x="928" y="100" type="line"/>
      <point x="928" y="0" type="line"/>
      <point x="529" y="0" type="line"/>
      <point x="529" y="100" type="line"/>
      <point x="604" y="100" type="line"/>
      <point x="604" y="320" type="line" smooth="yes"/>
      <point x="604" y="369"/>
      <point x="573" y="391"/>
      <point x="503" y="391" type="curve" smooth="yes"/>
      <point x="435" y="391"/>
      <point x="373" y="348"/>
      <point x="328" y="272" type="curve"/>
      <point x="355" y="347" type="line"/>
      <point x="355" y="100" type="line"/>
      <point x="430" y="100" type="line"/>
      <point x="430" y="0" type="line"/>
      <point x="35" y="0" type="line"/>
      <point x="35" y="100" type="line"/>
      <point x="110" y="100" type="line"/>
      <point x="110" y="382" type="line"/>
      <point x="35" y="382" type="line"/>
    </contour>
  </outline>
</glyph>
<glyph name="o" format="2">
  <advance width="944"/>
  <unicode hex="006F"/>
  <guideline y="700"/>
  <guideline y="-218"/>
  <guideline y="502"/>
  <guideline y="-20"/>
  <outline>
    <contour>
      <point x="30" y="241" type="curve" smooth="yes"/>
      <point x="30" y="397"/>
      <point x="226" y="502"/>
      <point x="471" y="502" type="curve" smooth="yes"/>
      <point x="716" y="502"/>
      <point x="914" y="397"/>
      <point x="914" y="241" type="curve" smooth="yes"/>
      <point x="914" y="85"/>
      <point x="716" y="-20"/>
      <point x="471" y="-20" type="curve" smooth="yes"/>
      <point x="226" y="-20"/>
      <point x="30" y="85"/>
    </contour>
    <contour>
      <point x="471" y="399" type="curve" smooth="yes"/>
      <point x="367" y="399"/>
      <point x="320" y="347"/>
      <point x="320" y="241" type="curve" smooth="yes"/>
      <point x="320" y="135"/>
      <point x="367" y="84"/>
      <point x="471" y="84" type="curve" smooth="yes"/>
      <point x="575" y="84"/>
      <point x="624" y="135"/>
      <point x="624" y="241" type="curve" smooth="yes"/>
      <point x="624" y="347"/>
      <point x="575" y="399"/>
    </contour>
  </outline>
</glyph>
<glyph name="p" format="2">
  <advance width="922"/>
  <unicode hex="0070"/>
  <guideline y="502"/>
  <guideline y="-218"/>
  <outline>
    <contour>
      <point x="35" y="479" type="line"/>
      <point x="355" y="479" type="line"/>
      <point x="355" y="425" type="line"/>
      <point x="383" y="457"/>
      <point x="455" y="502"/>
      <point x="561" y="502" type="curve" smooth="yes"/>
      <point x="752" y="502"/>
      <point x="892" y="432"/>
      <point x="892" y="260" type="curve" smooth="yes"/>
      <point x="892" y="74"/>
      <point x="763" y="-20"/>
      <point x="561" y="-20" type="curve" smooth="yes"/>
      <point x="474" y="-20"/>
      <point x="398" y="28"/>
      <point x="364" y="68" type="curve"/>
      <point x="365" y="-121" type="line"/>
      <point x="443" y="-121" type="line"/>
      <point x="443" y="-218" type="line"/>
      <point x="39" y="-218" type="line"/>
      <point x="39" y="-121" type="line"/>
      <point x="117" y="-121" type="line"/>
      <point x="116" y="382" type="line"/>
      <point x="35" y="382" type="line"/>
    </contour>
    <contour>
      <point x="364" y="253" type="curve"/>
      <point x="364" y="160"/>
      <point x="397" y="116"/>
      <point x="487" y="116" type="curve"/>
      <point x="593" y="116"/>
      <point x="614" y="162"/>
      <point x="619" y="253" type="curve"/>
      <point x="622" y="383"/>
      <point x="509" y="390"/>
      <point x="487" y="391" type="curve"/>
      <point x="379" y="391"/>
      <point x="364" y="322"/>
    </contour>
  </outline>
</glyph>
<glyph name="q" format="2">
  <advance width="913"/>
  <unicode hex="0071"/>
  <guideline y="-218"/>
  <outline>
    <contour>
      <point x="556" y="482" type="line"/>
      <point x="878" y="482" type="line"/>
      <point x="878" y="385" type="line"/>
      <point x="809" y="385" type="line"/>
      <point x="809" y="-121" type="line"/>
      <point x="883" y="-121" type="line"/>
      <point x="883" y="-218" type="line"/>
      <point x="487" y="-218" type="line"/>
      <point x="487" y="-121" type="line"/>
      <point x="556" y="-121" type="line"/>
      <point x="556" y="68" type="line"/>
      <point x="530" y="54"/>
      <point x="510" y="-20"/>
      <point x="293" y="-20" type="curve" smooth="yes"/>
      <point x="130" y="-20"/>
      <point x="35" y="68"/>
      <point x="35" y="248" type="curve" smooth="yes"/>
      <point x="35" y="391"/>
      <point x="140" y="502"/>
      <point x="293" y="502" type="curve" smooth="yes"/>
      <point x="400" y="502"/>
      <point x="501" y="486"/>
      <point x="556" y="431" type="curve"/>
    </contour>
    <contour>
      <point x="307" y="256" type="curve" smooth="yes"/>
      <point x="307" y="176"/>
      <point x="313" y="99"/>
      <point x="423" y="99" type="curve" smooth="yes"/>
      <point x="510" y="99"/>
      <point x="539" y="177"/>
      <point x="539" y="256" type="curve" smooth="yes"/>
      <point x="539" y="331"/>
      <point x="504" y="383"/>
      <point x="423" y="383" type="curve" smooth="yes"/>
      <point x="319" y="383"/>
      <point x="307" y="324"/>
    </contour>
  </outline>
</glyph>
<glyph name="r" format="2">
  <advance width="823"/>
  <unicode hex="0072"/>
  <outline>
    <contour>
      <point x="36" y="481" type="line"/>
      <point x="359" y="481" type="line"/>
      <point x="359" y="439" type="line"/>
      <point x="404" y="452"/>
      <point x="453" y="502"/>
      <point x="557" y="502" type="curve" smooth="yes"/>
      <point x="668" y="502"/>
      <point x="793" y="440"/>
      <point x="793" y="329" type="curve" smooth="yes"/>
      <point x="793" y="246"/>
      <point x="745" y="193"/>
      <point x="663" y="193" type="curve" smooth="yes"/>
      <point x="603" y="193"/>
      <point x="536" y="221"/>
      <point x="533" y="275" type="curve"/>
      <point x="532" y="307"/>
      <point x="532" y="329"/>
      <point x="574" y="367" type="curve"/>
      <point x="539" y="378"/>
      <point x="476" y="429"/>
      <point x="357" y="334" type="curve"/>
      <point x="357" y="94" type="line"/>
      <point x="436" y="94" type="line"/>
      <point x="436" y="0" type="line"/>
      <point x="35" y="0" type="line"/>
      <point x="35" y="94" type="line"/>
      <point x="113" y="94" type="line"/>
      <point x="113" y="387" type="line"/>
      <point x="35" y="387" type="line"/>
    </contour>
  </outline>
</glyph>
<glyph name="s" format="2">
  <advance width="836"/>
  <unicode hex="0073"/>
  <outline>
    <contour>
      <point x="646" y="502" type="line"/>
      <point x="752" y="502" type="line"/>
      <point x="752" y="355" type="line"/>
      <point x="646" y="354" type="line"/>
      <point x="636" y="374"/>
      <point x="622" y="390"/>
      <point x="550" y="391" type="curve" smooth="yes"/>
      <point x="312" y="393" type="line" smooth="yes"/>
      <point x="288" y="393"/>
      <point x="270" y="391"/>
      <point x="270" y="373" type="curve" smooth="yes"/>
      <point x="270" y="296"/>
      <point x="806" y="385"/>
      <point x="805" y="155" type="curve" smooth="yes"/>
      <point x="804" y="28"/>
      <point x="676" y="-3"/>
      <point x="576" y="0" type="curve"/>
      <point x="384" y="0" type="line"/>
      <point x="199" y="0" type="line" smooth="yes"/>
      <point x="163" y="0"/>
      <point x="136" y="21"/>
      <point x="136" y="21" type="curve"/>
      <point x="136" y="0" type="line"/>
      <point x="30" y="0" type="line"/>
      <point x="30" y="164" type="line"/>
      <point x="136" y="164" type="line"/>
      <point x="146" y="138"/>
      <point x="166" y="98"/>
      <point x="286" y="98" type="curve" smooth="yes"/>
      <point x="507" y="98" type="line" smooth="yes"/>
      <point x="523" y="98"/>
      <point x="531" y="109"/>
      <point x="531" y="121" type="curve" smooth="yes"/>
      <point x="531" y="219"/>
      <point x="32" y="73"/>
      <point x="32" y="330" type="curve" smooth="yes"/>
      <point x="32" y="501"/>
      <point x="220" y="502"/>
      <point x="388" y="502" type="curve" smooth="yes"/>
      <point x="419" y="502"/>
      <point x="585" y="507"/>
      <point x="646" y="467" type="curve"/>
    </contour>
  </outline>
</glyph>
<glyph name="t" format="2">
  <advance width="581"/>
  <unicode hex="0074"/>
  <outline>
    <contour>
      <point x="244" y="701" type="curve"/>
      <point x="359" y="701" type="line"/>
      <point x="359" y="478" type="line"/>
      <point x="454" y="478" type="line"/>
      <point x="454" y="391" type="line"/>
      <point x="359" y="391" type="line"/>
      <point x="359" y="117" type="line" smooth="yes"/>
      <point x="359" y="87"/>
      <point x="422" y="76"/>
      <point x="422" y="117" type="curve" smooth="yes"/>
      <point x="422" y="212" type="line"/>
      <point x="546" y="212" type="line"/>
      <point x="546" y="93" type="line" smooth="yes"/>
      <point x="546" y="47"/>
      <point x="512" y="0"/>
      <point x="340" y="0" type="curve" smooth="yes"/>
      <point x="226" y="0"/>
      <point x="119" y="27"/>
      <point x="119" y="151" type="curve"/>
      <point x="119" y="391" type="line"/>
      <point x="35" y="391" type="line"/>
      <point x="35" y="478" type="line"/>
      <point x="119" y="478" type="line"/>
      <point x="119" y="564" type="line"/>
      <point x="142" y="581"/>
      <point x="213" y="572"/>
    </contour>
  </outline>
</glyph>
<glyph name="u" format="2">
  <advance width="1011"/>
  <unicode hex="0075"/>
  <outline>
    <contour>
      <point x="35" y="482" type="line"/>
      <point x="383" y="482" type="line"/>
      <point x="383" y="138" type="line" smooth="yes"/>
      <point x="383" y="82"/>
      <point x="637" y="55"/>
      <point x="637" y="212" type="curve" smooth="yes"/>
      <point x="637" y="411" type="line"/>
      <point x="545" y="411" type="line"/>
      <point x="545" y="482" type="line"/>
      <point x="894" y="482" type="line"/>
      <point x="894" y="80" type="line"/>
      <point x="976" y="80" type="line"/>
      <point x="976" y="0" type="line"/>
      <point x="638" y="0" type="line"/>
      <point x="638" y="57" type="line"/>
      <point x="593" y="23"/>
      <point x="555" y="-22"/>
      <point x="370" y="-20" type="curve"/>
      <point x="234" y="-20"/>
      <point x="117" y="16"/>
      <point x="117" y="181" type="curve"/>
      <point x="117" y="392" type="line"/>
      <point x="35" y="392" type="line"/>
    </contour>
  </outline>
</glyph>
<glyph name="v" format="2">
  <advance width="1041"/>
  <unicode hex="0076"/>
  <guideline y="389"/>
  <outline>
    <contour>
      <point x="20" y="482" type="line"/>
      <point x="518" y="482" type="line"/>
      <point x="518" y="389" type="line"/>
      <point x="423" y="389" type="line"/>
      <point x="606" y="105" type="line"/>
      <point x="776" y="389" type="line"/>
      <point x="675" y="389" type="line"/>
      <point x="675" y="482" type="line"/>
      <point x="1021" y="482" type="line"/>
      <point x="1021" y="389" type="line"/>
      <point x="932" y="389" type="line"/>
      <point x="694" y="0" type="line"/>
      <point x="369" y="0" type="line"/>
      <point x="112" y="389" type="line"/>
      <point x="20" y="389" type="line"/>
    </contour>
  </outline>
</glyph>
<glyph name="w" format="2">
  <advance width="1420"/>
  <unicode hex="0077"/>
  <outline>
    <contour>
      <point x="20" y="482" type="line"/>
      <point x="458" y="482" type="line"/>
      <point x="458" y="393" type="line"/>
      <point x="377" y="393" type="line"/>
      <point x="532" y="107" type="line"/>
      <point x="642" y="281" type="line"/>
      <point x="579" y="393" type="line"/>
      <point x="481" y="393" type="line"/>
      <point x="481" y="482" type="line"/>
      <point x="970" y="482" type="line"/>
      <point x="970" y="393" type="line"/>
      <point x="847" y="393" type="line"/>
      <point x="1016" y="118" type="line"/>
      <point x="1181" y="393" type="line"/>
      <point x="1082" y="393" type="line"/>
      <point x="1082" y="482" type="line"/>
      <point x="1400" y="482" type="line"/>
      <point x="1400" y="393" type="line"/>
      <point x="1330" y="393" type="line"/>
      <point x="1093" y="0" type="line"/>
      <point x="801" y="0" type="line"/>
      <point x="697" y="146" type="line"/>
      <point x="610" y="0" type="line"/>
      <point x="310" y="0" type="line"/>
      <point x="100" y="393" type="line"/>
      <point x="20" y="393" type="line"/>
    </contour>
  </outline>
</glyph>
<glyph name="x" format="2">
  <advance width="968"/>
  <unicode hex="0078"/>
  <outline>
    <contour>
      <point x="20" y="482" type="line"/>
      <point x="468" y="482" type="line"/>
      <point x="468" y="392" type="line"/>
      <point x="409" y="392" type="line"/>
      <point x="509" y="318" type="line"/>
      <point x="626" y="392" type="line"/>
      <point x="539" y="392" type="line"/>
      <point x="539" y="482" type="line"/>
      <point x="948" y="482" type="line"/>
      <point x="948" y="392" type="line"/>
      <point x="840" y="392" type="line"/>
      <point x="599" y="258" type="line"/>
      <point x="867" y="94" type="line"/>
      <point x="948" y="94" type="line"/>
      <point x="948" y="0" type="line"/>
      <point x="476" y="0" type="line"/>
      <point x="476" y="95" type="line"/>
      <point x="556" y="95" type="line"/>
      <point x="457" y="168" type="line"/>
      <point x="340" y="94" type="line"/>
      <point x="420" y="94" type="line"/>
      <point x="420" y="0" type="line"/>
      <point x="21" y="0" type="line"/>
      <point x="21" y="94" type="line"/>
      <point x="130" y="94" type="line"/>
      <point x="353" y="230" type="line"/>
      <point x="96" y="392" type="line"/>
      <point x="20" y="392" type="line"/>
    </contour>
  </outline>
</glyph>
<glyph name="y" format="2">
  <advance width="919"/>
  <unicode hex="0079"/>
  <guideline y="392"/>
  <outline>
    <contour>
      <point x="615" y="482" type="line"/>
      <point x="902" y="482" type="line"/>
      <point x="902" y="392" type="line"/>
      <point x="826" y="392" type="line"/>
      <point x="536" y="-45" type="line"/>
      <point x="524" y="-57"/>
      <point x="415" y="-227"/>
      <point x="251" y="-218" type="curve"/>
      <point x="132" y="-218"/>
      <point x="41" y="-166"/>
      <point x="41" y="-26" type="curve"/>
      <point x="263" y="-26" type="line"/>
      <point x="256" y="-80"/>
      <point x="325" y="-143"/>
      <point x="361" y="-100" type="curve" smooth="yes"/>
      <point x="411" y="-40" type="line"/>
      <point x="117" y="392" type="line"/>
      <point x="41" y="392" type="line"/>
      <point x="41" y="482" type="line"/>
      <point x="457" y="482" type="line"/>
      <point x="457" y="392" type="line"/>
      <point x="381" y="392" type="line"/>
      <point x="536" y="161" type="line"/>
      <point x="691" y="392" type="line"/>
      <point x="615" y="392" type="line"/>
    </contour>
  </outline>
</glyph>
<glyph name="z" format="2">
  <advance width="788"/>
  <unicode hex="007A"/>
  <outline>
    <contour>
      <point x="57" y="297" type="line"/>
      <point x="57" y="481" type="line"/>
      <point x="768" y="481" type="line"/>
      <point x="768" y="398" type="line"/>
      <point x="418" y="94" type="line"/>
      <point x="635" y="94" type="line"/>
      <point x="635" y="206" type="line"/>
      <point x="766" y="206" type="line"/>
      <point x="766" y="0" type="line"/>
      <point x="20" y="0" type="line"/>
      <point x="20" y="105" type="line"/>
      <point x="365" y="398" type="line"/>
      <point x="171" y="398" type="line"/>
      <point x="171" y="297" type="line"/>
    </contour>
  </outline>
</glyph>
